# Blender v2.92.0 OBJ File: 'partie_ronde_catapulte.blend'
# www.blender.org
mtllib complex_part.mtl
o Cube
v 0.100000 1.000000 -0.100000
v 0.100000 1.000000 0.100000
v -0.100000 1.000000 -0.100000
v -0.100000 1.000000 0.100000
v 0.100000 1.717805 0.100000
v -0.100000 1.717805 0.100000
v 0.100000 1.717805 -0.100000
v -0.100580 1.714074 -0.099224
v -0.267461 1.209771 0.069916
v -0.258680 1.211535 -0.044944
v -0.223851 1.547353 0.074898
v -0.236548 1.549142 -0.045116
v 0.284473 1.188113 -0.067253
v 0.286559 1.189842 0.042385
v 0.299671 1.536507 -0.061194
v 0.280430 1.534022 0.055042
v -0.092882 1.659467 0.025792
v -0.099635 0.998772 -0.002601
v 0.099340 1.000606 -0.008639
v 0.114187 1.654513 0.026819
v 0.280927 1.515252 -0.039128
v 0.266407 1.192430 -0.038837
v -0.228685 1.202052 -0.032200
v -0.193627 1.525627 -0.036235
v 0.100000 0.969393 -0.100000
v -0.100000 0.969393 0.100000
v 0.100000 0.969393 0.100000
v -0.100000 0.969393 -0.100000
vt 0.625000 0.250000
vt 0.625000 0.000000
vt 0.625000 0.000000
vt 0.625000 0.250000
vt 0.607676 0.750000
vt 0.625000 0.750000
vt 0.625000 1.000000
vt 0.607676 1.000000
vt 0.607676 0.000000
vt 0.607676 0.250000
vt 0.607676 0.500000
vt 0.625000 0.500000
vt 0.625000 0.500000
vt 0.875000 0.500000
vt 0.875000 0.750000
vt 0.625000 0.750000
vt 0.625000 0.500000
vt 0.625000 0.750000
vt 0.625000 0.250000
vt 0.625000 0.500000
vt 0.625000 1.000000
vt 0.625000 0.000000
vt 0.625000 0.250000
vt 0.625000 1.000000
vt 0.625000 1.000000
vt 0.875000 0.500000
vt 0.875000 0.750000
vt 0.625000 0.500000
vt 0.625000 0.750000
vt 0.625000 0.250000
vt 0.625000 0.500000
vt 0.625000 0.250000
vt 0.625000 0.500000
vt 0.625000 0.500000
vt 0.625000 0.250000
vt 0.625000 0.250000
vn -0.7912 -0.6110 -0.0255
vn 0.0000 -0.0000 1.0000
vn -1.0000 -0.0000 0.0000
vn 1.0000 -0.0000 0.0000
vn 0.0000 -0.0000 -1.0000
vn -0.0093 0.9999 -0.0093
vn 0.7136 -0.7006 -0.0009
vn -0.0045 1.0000 0.0033
vn -0.9951 0.0968 0.0181
vn -0.1857 0.0030 0.9826
vn -0.7890 0.6137 0.0291
vn 0.9970 -0.0151 0.0757
vn 0.2693 -0.0099 0.9630
vn 0.6923 0.7200 0.0478
vn -0.0119 0.0487 -0.9987
vn -0.0025 -0.9057 -0.4238
vn -0.2828 0.0430 -0.9582
vn 0.3722 0.0072 -0.9281
vn 0.0000 -1.0000 0.0000
usemtl Material
s off
f 3/1/1 4/2/1 9/3/1 10/4/1
f 27/5/2 2/6/2 4/7/2 26/8/2
f 26/9/3 4/2/3 3/1/3 28/10/3
f 25/11/4 1/12/4 2/6/4 27/5/4
f 28/10/5 3/1/5 1/12/5 25/11/5
f 7/13/6 8/14/6 6/15/6 5/16/6
f 2/6/7 1/12/7 13/17/7 14/18/7
f 1/12/8 3/1/8 18/19/8 19/20/8
f 4/7/2 2/6/2 5/16/2 6/21/2
f 10/4/9 9/3/9 11/22/9 12/23/9
f 4/7/10 6/21/10 11/24/10 9/25/10
f 6/15/11 8/14/11 12/26/11 11/27/11
f 14/18/12 13/17/12 15/28/12 16/29/12
f 5/16/13 2/6/13 14/18/13 16/29/13
f 7/13/14 5/16/14 16/29/14 15/28/14
f 19/20/15 18/19/15 17/30/15 20/31/15
f 20/31/16 17/30/16 8/32/16 7/13/16
f 20/31/17 21/33/17 22/34/17 19/20/17
f 18/19/18 23/35/18 24/36/18 17/30/18
f 28/10/19 25/11/19 27/5/19 26/9/19
