# Blender v2.92.0 OBJ File: 'sea_and_sand.blend'
# www.blender.org
mtllib sea_and_sand.mtl
o Plane.007
v -22.069225 -1.301618 66.824989
v -58.710655 -1.301618 30.135601
v -36.094704 -1.301618 64.032181
v -47.983238 -1.301618 56.078911
v -55.924904 -1.301618 44.176018
v -58.693108 -1.301618 -27.583015
v -21.685192 -1.301618 -64.275467
v -55.872635 -1.301618 -41.618027
v -47.849125 -1.301618 -53.519608
v -35.844093 -1.301618 -61.475845
v -21.722023 -0.691658 -64.278931
v -58.723244 -0.695294 -27.587814
v -35.880417 -0.691935 -61.479820
v -47.884003 -0.692723 -53.524025
v -55.905327 -0.693902 -41.622734
v -58.730225 -0.701010 30.144733
v -22.082153 -0.701010 66.831528
v -55.941917 -0.702124 44.184948
v -47.998089 -0.702516 56.087269
v -36.108124 -0.702124 64.039696
v 72.210960 -1.301618 19.535774
v 25.001850 -1.301618 66.824989
v 71.493744 -1.301618 27.747467
v 69.363899 -1.301618 35.709648
v 65.886139 -1.301618 43.180386
v 61.166126 -1.301618 49.932705
v 55.347282 -1.301618 55.761421
v 48.606403 -1.301618 60.489441
v 41.148319 -1.301618 63.973106
v 33.199623 -1.301618 66.106567
v 25.001862 -1.301618 -64.302551
v 72.210960 -1.301618 -17.040726
v 33.199631 -1.301618 -63.588867
v 41.148319 -1.301618 -61.460022
v 48.606407 -1.301618 -57.980690
v 55.347282 -1.301618 -53.256577
v 61.166122 -1.301618 -47.431232
v 65.886139 -1.301618 -40.681656
v 69.363899 -1.301618 -33.212929
v 71.493744 -1.301618 -25.251991
v 25.001842 -0.696340 66.828262
v 72.210960 -0.691658 19.535778
v 33.199623 -0.695527 66.109268
v 41.148323 -0.694739 63.975258
v 48.606407 -0.693999 60.491077
v 55.347279 -0.693330 55.762589
v 61.166130 -0.692753 49.933472
v 65.886139 -0.692285 43.180824
v 69.363907 -0.691940 35.709839
v 71.493752 -0.691729 27.747517
v 72.210960 -0.691658 -17.040718
v 25.001858 -0.691658 -64.304298
v 71.493744 -0.691658 -25.252014
v 69.363899 -0.691658 -33.213032
v 65.886139 -0.691658 -40.681889
v 61.166126 -0.691658 -47.431641
v 55.347286 -0.691658 -53.257202
v 48.606411 -0.691658 -57.981567
v 41.148323 -0.691658 -61.461182
v 33.199631 -0.691658 -63.590324
vt 0.953219 0.501046
vt 0.953075 0.501045
vt 0.953998 0.626112
vt 0.954143 0.626015
vt 0.954230 0.139339
vt 0.954086 0.139298
vt 0.953072 0.268610
vt 0.953217 0.268615
vt 0.791840 0.248152
vt 0.791696 0.248152
vt 0.791696 0.455816
vt 0.791840 0.455814
vt 0.366652 0.595877
vt 0.366652 0.265829
vt 0.358992 0.184078
vt 0.337179 0.111721
vt 0.304533 0.059776
vt 0.266026 0.036150
vt 0.138943 0.010845
vt 0.116645 0.010511
vt 0.095025 0.018404
vt 0.074739 0.034279
vt 0.056403 0.057657
vt 0.040575 0.087828
vt 0.027735 0.123873
vt 0.018273 0.164698
vt 0.012478 0.209063
vt 0.010524 0.255617
vt 0.010512 0.464716
vt 0.012460 0.512047
vt 0.018250 0.558714
vt 0.027707 0.603296
vt 0.040543 0.644442
vt 0.056367 0.680899
vt 0.074700 0.711559
vt 0.094984 0.735495
vt 0.116603 0.751974
vt 0.138899 0.760498
vt 0.266961 0.785872
vt 0.305111 0.777464
vt 0.337453 0.738405
vt 0.359063 0.674639
vt 0.955970 0.101758
vt 0.955825 0.101716
vt 0.770672 0.727821
vt 0.767677 0.687824
vt 0.767532 0.687880
vt 0.770527 0.727871
vt 0.765673 0.623447
vt 0.765528 0.623507
vt 0.764966 0.544495
vt 0.764819 0.544556
vt 0.955594 0.662929
vt 0.955739 0.662832
vt 0.770519 0.010511
vt 0.767503 0.061476
vt 0.767656 0.061485
vt 0.770672 0.010517
vt 0.765492 0.133162
vt 0.765643 0.133173
vt 0.764790 0.214653
vt 0.764941 0.214666
vt 0.953396 0.478825
vt 0.953251 0.478823
vt 0.954244 0.456721
vt 0.954100 0.456719
vt 0.955739 0.435407
vt 0.955595 0.435406
vt 0.793594 0.683138
vt 0.793094 0.657778
vt 0.792949 0.657782
vt 0.793450 0.683144
vt 0.792661 0.625965
vt 0.792517 0.625967
vt 0.792310 0.588667
vt 0.792166 0.588669
vt 0.792052 0.547016
vt 0.791908 0.547018
vt 0.791894 0.502279
vt 0.791749 0.502279
vt 0.953266 0.291367
vt 0.953410 0.291370
vt 0.954193 0.313913
vt 0.954337 0.313917
vt 0.955826 0.335567
vt 0.955970 0.335570
vt 0.793451 0.010511
vt 0.792949 0.038818
vt 0.793094 0.038824
vt 0.793594 0.010521
vt 0.792517 0.073175
vt 0.792661 0.073179
vt 0.792166 0.112535
vt 0.792310 0.112537
vt 0.791908 0.155706
vt 0.792052 0.155706
vt 0.791749 0.201374
vt 0.791894 0.201374
vt 0.644073 0.010511
vt 0.516043 0.035872
vt 0.493746 0.044395
vt 0.472128 0.060875
vt 0.451845 0.084808
vt 0.433515 0.115469
vt 0.417692 0.151924
vt 0.404860 0.193069
vt 0.395407 0.237652
vt 0.389620 0.284317
vt 0.387676 0.331648
vt 0.387707 0.540745
vt 0.389664 0.587301
vt 0.395464 0.631664
vt 0.404929 0.672487
vt 0.417772 0.708530
vt 0.433604 0.738697
vt 0.451943 0.762072
vt 0.472232 0.777945
vt 0.493854 0.785831
vt 0.516151 0.785496
vt 0.643137 0.760187
vt 0.681646 0.736555
vt 0.714293 0.684603
vt 0.736106 0.612242
vt 0.743766 0.530487
vt 0.743766 0.200516
vt 0.736177 0.121750
vt 0.714566 0.057983
vt 0.682224 0.018921
vn 0.0006 0.0043 1.0000
vn -0.0000 0.0081 -1.0000
vn -1.0000 0.0000 0.0000
vn 0.0000 -1.0000 -0.0001
vn 0.1952 0.0158 -0.9806
vn 0.5558 0.0241 -0.8309
vn 0.8314 0.0301 -0.5548
vn 0.9803 0.0328 -0.1946
vn 0.1939 0.0176 0.9809
vn 0.5520 0.0380 0.8329
vn 0.8282 0.0502 0.5582
vn 0.9791 0.0522 0.1967
vn 0.9992 0.0411 0.0002
vn -0.0867 0.0026 0.9962
vn -0.2587 0.0021 0.9659
vn -0.4228 0.0015 0.9062
vn -0.5739 0.0010 0.8189
vn -0.7075 0.0006 0.7067
vn -0.8195 0.0003 0.5731
vn -0.9065 0.0001 0.4221
vn -0.9660 0.0000 0.2584
vn -0.9962 0.0000 0.0870
vn -0.0873 0.0049 -0.9962
vn -0.2593 0.0039 -0.9658
vn -0.4232 0.0028 -0.9060
vn -0.5742 0.0019 -0.8187
vn -0.7077 0.0011 -0.7065
vn -0.8196 0.0006 -0.5729
vn -0.9066 0.0002 -0.4220
vn -0.9660 0.0001 -0.2584
vn -0.9962 0.0000 -0.0870
vn -0.0000 1.0000 0.0000
usemtl Material.001
s off
f 31/1/1 52/2/1 11/3/1 7/4/1
f 1/5/2 17/6/2 41/7/2 22/8/2
f 21/9/3 42/10/3 51/11/3 32/12/3
f 16/13/4 12/14/4 15/15/4 14/16/4 13/17/4 11/18/4 52/19/4 60/20/4 59/21/4 58/22/4 57/23/4 56/24/4 55/25/4 54/26/4 53/27/4 51/28/4 42/29/4 50/30/4 49/31/4 48/32/4 47/33/4 46/34/4 45/35/4 44/36/4 43/37/4 41/38/4 17/39/4 20/40/4 19/41/4 18/42/4
f 1/5/5 3/43/5 20/44/5 17/6/5
f 3/45/6 4/46/6 19/47/6 20/48/6
f 4/46/7 5/49/7 18/50/7 19/47/7
f 5/49/8 2/51/8 16/52/8 18/50/8
f 11/3/9 13/53/9 10/54/9 7/4/9
f 13/55/10 14/56/10 9/57/10 10/58/10
f 14/56/11 15/59/11 8/60/11 9/57/11
f 15/59/12 12/61/12 6/62/12 8/60/12
f 6/62/13 12/61/13 16/52/13 2/51/13
f 31/1/14 33/63/14 60/64/14 52/2/14
f 33/63/15 34/65/15 59/66/15 60/64/15
f 34/65/16 35/67/16 58/68/16 59/66/16
f 35/69/17 36/70/17 57/71/17 58/72/17
f 36/70/18 37/73/18 56/74/18 57/71/18
f 37/73/19 38/75/19 55/76/19 56/74/19
f 38/75/20 39/77/20 54/78/20 55/76/20
f 39/77/21 40/79/21 53/80/21 54/78/21
f 40/79/22 32/12/22 51/11/22 53/80/22
f 41/7/23 43/81/23 30/82/23 22/8/23
f 43/81/24 44/83/24 29/84/24 30/82/24
f 44/83/25 45/85/25 28/86/25 29/84/25
f 45/87/26 46/88/26 27/89/26 28/90/26
f 46/88/27 47/91/27 26/92/27 27/89/27
f 47/91/28 48/93/28 25/94/28 26/92/28
f 48/93/29 49/95/29 24/96/29 25/94/29
f 49/95/30 50/97/30 23/98/30 24/96/30
f 50/97/31 42/10/31 21/9/31 23/98/31
f 1/99/32 22/100/32 30/101/32 29/102/32 28/103/32 27/104/32 26/105/32 25/106/32 24/107/32 23/108/32 21/109/32 32/110/32 40/111/32 39/112/32 38/113/32 37/114/32 36/115/32 35/116/32 34/117/32 33/118/32 31/119/32 7/120/32 10/121/32 9/122/32 8/123/32 6/124/32 2/125/32 5/126/32 4/127/32 3/128/32
